HIERARCHY
ROOT Hips
{
    OFFSET 0.000000 0.000000 0.000000
    CHANNELS 6 Xposition Yposition Zposition Zrotation Xrotation Yrotation
    JOINT Spine
    {
        OFFSET -0.000000 14.517291 0.000000
        CHANNELS 3 Zrotation Xrotation Yrotation
        JOINT Spine1
        {
            OFFSET -0.000000 37.558300 0.000000
            CHANNELS 3 Zrotation Xrotation Yrotation
            JOINT Neck
            {
                OFFSET -0.000000 37.404057 3.400369
                CHANNELS 3 Zrotation Xrotation Yrotation
                JOINT Head
                {
                    OFFSET -0.000000 24.785618 -3.540803
                    CHANNELS 3 Zrotation Xrotation Yrotation
                    End Site
                    {
                        OFFSET -0.000000 35.408028 0.000000
                    }
                }
            }
            JOINT LeftShoulder
            {
                OFFSET 6.992933 33.973492 -0.192664
                CHANNELS 3 Zrotation Xrotation Yrotation
                JOINT LeftArm
                {
                    OFFSET 21.527611 0.000000 0.000000
                    CHANNELS 3 Zrotation Xrotation Yrotation
                    JOINT LeftForeArm
                    {
                        OFFSET 56.353916 0.000000 0.000000
                        CHANNELS 3 Zrotation Xrotation Yrotation
                        JOINT LeftHand
                        {
                            OFFSET 47.774071 0.000000 0.000000
                            CHANNELS 3 Zrotation Xrotation Yrotation
                            End Site
                            {
                                OFFSET 26.556021 0.000000 0.000000
                            }
                        }
                    }
                }
            }
            JOINT RightShoulder
            {
                OFFSET -7.065357 33.973492 -0.192664
                CHANNELS 3 Zrotation Xrotation Yrotation
                JOINT RightArm
                {
                    OFFSET -21.527611 0.000000 0.000000
                    CHANNELS 3 Zrotation Xrotation Yrotation
                    JOINT RightForeArm
                    {
                        OFFSET -56.353916 0.000000 0.000000
                        CHANNELS 3 Zrotation Xrotation Yrotation
                        JOINT RightHand
                        {
                            OFFSET -47.774071 0.000000 0.000000
                            CHANNELS 3 Zrotation Xrotation Yrotation
                            End Site
                            {
                                OFFSET -26.556021 0.000000 0.000000
                            }
                        }
                    }
                }
            }
        }
    }
    JOINT LeftUpLeg
    {
        OFFSET 17.704014 0.000000 0.000000
        CHANNELS 3 Zrotation Xrotation Yrotation
        JOINT LeftLeg
        {
            OFFSET -0.000000 -81.181816 0.000000
            CHANNELS 3 Zrotation Xrotation Yrotation
            JOINT LeftFoot
            {
                OFFSET -0.000000 -62.821102 0.000000
                CHANNELS 3 Zrotation Xrotation Yrotation
                JOINT LeftToeBase
                {
                    OFFSET -0.000000 -11.507608 26.556021
                    CHANNELS 3 Zrotation Xrotation Yrotation
                    End Site
                    {
                        OFFSET -0.000000 0.000000 7.081605
                    }
                }
            }
        }
    }
    JOINT RightUpLeg
    {
        OFFSET -17.704014 0.000000 0.000000
        CHANNELS 3 Zrotation Xrotation Yrotation
        JOINT RightLeg
        {
            OFFSET -0.000000 -81.181816 0.000000
            CHANNELS 3 Zrotation Xrotation Yrotation
            JOINT RightFoot
            {
                OFFSET -0.000000 -62.821102 0.000000
                CHANNELS 3 Zrotation Xrotation Yrotation
                JOINT RightToeBase
                {
                    OFFSET -0.000000 -11.507608 26.556021
                    CHANNELS 3 Zrotation Xrotation Yrotation
                    End Site
                    {
                        OFFSET -0.000000 0.000000 7.081605
                    }
                }
            }
        }
    }
}
MOTION
Frames:    4
Frame Time:    0.008333
-6.840509    159.719666    -89.583015    -3.416227    -8.694108    48.301010    0.952973    -2.843695    -2.841563    -12.467760    -4.131650    -1.409178    10.616790    -2.827791    -17.289164    7.934588    18.645874    -20.087688    10.487814    7.457449    -22.590319    -36.135303    20.812456    -47.073338    -7.954698    -10.313916    -115.384460    3.388464    -22.483513    -2.134235    -24.970490    -19.122847    -12.837138    17.808340    -37.570847    60.036400    -8.980860    -21.695419    32.367569    5.013229    -18.097530    27.225805    24.959114    5.468391    -5.654919    -8.222931    18.815102    -19.510469    -4.890642    -22.404530    42.098480    0.000000    0.000000    0.000000    -7.212734    -9.249847    -20.036097    3.842941    11.676434    -19.141779    7.632538    12.806862    -11.980336    0.000000    0.000000    0.000000    
-6.842452    159.726425    -89.577255    -3.420057    -8.714450    48.292648    0.946385    -2.828931    -2.855102    -12.491544    -4.162086    -1.417815    10.616065    -2.832224    -17.298460    7.932473    18.615889    -20.095427    10.480215    7.449741    -22.589523    -36.160271    20.805803    -47.041016    -8.006372    -10.215115    -115.396103    3.409792    -22.470633    -2.133821    -24.987665    -19.112320    -12.855412    17.971434    -37.721046    60.167721    -8.818749    -21.598274    32.512760    5.010536    -18.029968    27.277212    24.979849    5.492858    -5.662450    -8.224538    18.790861    -19.506411    -4.890841    -22.381443    42.098949    0.000000    0.000000    0.000000    -7.186143    -9.233124    -20.031330    3.838798    11.656629    -19.139704    7.612697    12.833830    -11.979977    0.000000    0.000000    0.000000    
-6.843996    159.733871    -89.572670    -3.425160    -8.729663    48.285507    0.938076    -2.825257    -2.864727    -12.514544    -4.175360    -1.423257    10.596795    -2.809607    -17.321932    7.960825    18.557186    -20.110952    10.480202    7.435756    -22.585249    -36.170830    20.817717    -47.027504    -8.021631    -10.167303    -115.405205    3.438333    -22.450441    -2.112250    -24.995850    -19.092041    -12.882229    17.945440    -37.732174    60.178097    -8.847986    -21.629675    32.599430    5.112874    -18.022881    27.287556    24.991802    5.511195    -5.664248    -8.215446    18.775005    -19.511257    -4.911655    -22.397854    42.112759    0.000000    0.000000    0.000000    -7.164701    -9.219453    -20.006180    3.838245    11.636285    -19.145704    7.629062    12.851620    -11.995813    0.000000    0.000000    0.000000    
-6.846828    159.740631    -89.572495    -3.434019    -8.739724    48.281937    0.932272    -2.822245    -2.879370    -12.541855    -4.201854    -1.431973    10.612697    -2.815731    -17.331690    7.936540    18.536730    -20.122316    10.480027    7.425156    -22.572790    -36.179207    20.835270    -47.018131    -8.047631    -10.118104    -115.408859    3.453410    -22.443687    -2.101463    -24.998947    -19.073193    -12.895160    17.836418    -37.663540    60.126339    -8.964306    -21.711021    32.672932    5.155783    -18.059294    27.251686    24.999655    5.522256    -5.656198    -8.199347    18.753275    -19.504200    -4.913992    -22.382969    42.096317    0.000000    0.000000    0.000000    -7.149664    -9.215322    -19.991400    3.842586    11.625057    -19.153004    7.648982    12.871151    -12.009607    0.000000    0.000000    0.000000    
